<svg width="32" height="32" viewBox="0 0 32 32" fill="none" xmlns="http://www.w3.org/2000/svg">
<path fill-rule="evenodd" clip-rule="evenodd" d="M14.7022 20.4044C18.4037 20.4044 21.4044 17.4037 21.4044 13.7022C21.4044 10.0007 18.4037 7 14.7022 7C11.0007 7 8 10.0007 8 13.7022C8 17.4037 11.0007 20.4044 14.7022 20.4044ZM14.7022 19.0639C17.6634 19.0639 20.0639 16.6634 20.0639 13.7022C20.0639 10.741 17.6634 8.34044 14.7022 8.34044C11.741 8.34044 9.34044 10.741 9.34044 13.7022C9.34044 16.6634 11.741 19.0639 14.7022 19.0639Z" fill="white"/>
<rect x="22.9533" y="24.739" width="8.04262" height="1.34044" rx="0.670219" transform="rotate(-128.664 22.9533 24.739)" fill="white"/>
</svg>
